<svg height="77" viewBox="0 0 301 77" width="301" xmlns="http://www.w3.org/2000/svg">
  <g fill="#004799" opacity=".99" transform="scale(2)">
    <g>
      <path d="m55.7 7.2h-1.5l-.5-1.1h-2.5l-.4 1.1h-1.5l2.3-5.6h1.6zm-3.5-6.7c0 .3-.2.5-.5.5s-.5-.2-.5-.5.2-.5.5-.5.5.2.5.5zm.2 2.5-.8 2.2h1.7zm1.5-2.5c0 .3-.2.5-.5.5s-.5-.2-.5-.5.2-.5.5-.5.5.2.5.5z"/>
      <path d="m59.1 1.6c1.2 0 1.8.8 1.8 1.6 0 .6-.3 1.1-1 1.4.6.3.8 1 1.5 2.6h-1.4c-.6-1.2-.9-2.2-1.6-2.2h-.4v2.3h-1.4v-5.7zm-1.1 2.3h.7c.4 0 .8-.2.8-.6s-.3-.6-.8-.6h-.7z"/>
      <path d="m64.2 6.2h3.1v1h-5.5l3.1-4.6h-2.9v-1h5.3z"/>
      <path d="m73.4 2.6h-2v4.6h-1.4v-4.6h-2v-1h5.5v1z"/>
      <path d="m78.7 7.2h-4.2v-5.6h4.1v1h-2.7v1.2h2.6v1h-2.6v1.4h2.8z"/>
      <path d="m82.9 4.3 2.5 3h-1.8l-2.2-2.6v2.6h-1.4v-5.7h1.4v2.6l1.8-2.6h1.5z"/>
      <path d="m91.9 7.2h-1.5l-.5-1.1h-2.5l-.4 1.1h-1.5l2.3-5.6h1.6zm-3.3-4.2-.8 2.2h1.7z"/>
      <path d="m96.6 3.1c-.8-.4-1.3-.5-1.8-.5s-.8.2-.8.5c0 .8 2.9.6 2.9 2.6 0 1.1-.9 1.7-2.2 1.7-1 0-1.5-.3-2-.5v-1.3c.8.5 1.3.7 1.9.7.5 0 .8-.2.8-.5 0-.9-2.9-.6-2.9-2.6 0-1 .8-1.6 2.1-1.6.6 0 1.2.1 1.9.4v1.1z"/>
      <path d="m101.8 3.1c-.8-.4-1.3-.5-1.8-.5s-.8.2-.8.5c0 .8 2.9.6 2.9 2.6 0 1.1-.9 1.7-2.2 1.7-1 0-1.5-.3-2-.5v-1.3c.8.5 1.3.7 1.9.7.5 0 .8-.2.8-.5 0-.9-2.9-.6-2.9-2.6 0-1 .8-1.6 2.1-1.6.6 0 1.2.1 1.9.4v1.1z"/>
      <path d="m107.3 7.2h-4.2v-5.6h4.1v1h-2.7v1.2h2.6v1h-2.6v1.4h2.8z"/>
    </g>
    <g>
      <path d="m55.2 22.3c-.8.4-1.4.6-2.2.6-2.2 0-3.3-1.4-3.3-2.9s1.2-2.9 3.4-2.9c.8 0 1.5.2 2 .5v1.3c-.6-.3-1.2-.6-1.9-.6-1.2 0-2 .7-2 1.7s.8 1.7 2 1.7c.7 0 1.2-.2 2-.6z"/>
      <path d="m62.3 22.8h-1.5l-.5-1.1h-2.5l-.4 1.1h-1.5l2.3-5.6h1.6zm-3.3-4.3-.8 2.2h1.7z"/>
      <path d="m64.6 22.8h-1.4v-5.6h1.4z"/>
      <path d="m69.9 18.7c-.8-.4-1.3-.5-1.8-.5s-.8.2-.8.5c0 .8 2.9.6 2.9 2.6 0 1.1-.9 1.7-2.2 1.7-1 0-1.5-.3-2-.5v-1.2c.8.5 1.3.7 1.9.7.5 0 .8-.2.8-.5 0-.9-2.9-.6-2.9-2.6 0-1 .8-1.6 2.1-1.6.6 0 1.2.1 1.9.4v1z"/>
      <path d="m75.1 18.7c-.8-.4-1.3-.5-1.8-.5s-.8.2-.8.5c0 .8 2.9.6 2.9 2.6 0 1.1-.9 1.7-2.2 1.7-1 0-1.5-.3-2-.5v-1.2c.8.5 1.3.7 1.9.7.5 0 .8-.2.8-.5 0-.9-2.9-.6-2.9-2.6 0-1 .8-1.6 2.2-1.6.6 0 1.2.1 1.9.4z"/>
      <path d="m80.7 22.8h-4.2v-5.6h4.1v1h-2.7v1.2h2.6v1h-2.6v1.4h2.7v1z"/>
      <path d="m87 17.2c2.1 0 3.1 1.3 3.1 2.8 0 1.6-1 2.8-3.3 2.8h-2.3v-5.6zm-1.1 4.6h.9c1.4 0 1.8-1 1.8-1.8 0-1-.5-1.8-1.9-1.8h-.9v3.6z"/>
      <path d="m95.5 22.8h-4.2v-5.6h4.1v1h-2.7v1.2h2.6v1h-2.6v1.4h2.8z"/>
      <path d="m100.5 18.7c-.8-.4-1.3-.5-1.8-.5s-.8.2-.8.5c0 .8 2.9.6 2.9 2.6 0 1.1-.9 1.7-2.2 1.7-1 0-1.5-.3-2-.5v-1.2c.8.5 1.3.7 1.9.7.5 0 .8-.2.8-.5 0-.9-2.9-.6-2.9-2.6 0-1 .8-1.6 2.1-1.6.6 0 1.2.1 1.9.4v1z"/>
      <path d="m109.3 17.2h1.2v5.6h-1.4v-3.5l-1.5 1.8h-.2l-1.5-1.8v3.5h-1.4v-5.6h1.2l1.8 2.1z"/>
      <path d="m116.2 22.8h-4.2v-5.6h4.1v1h-2.7v1.2h2.6v1h-2.6v1.4h2.7v1zm-2.3-6.2h-.6l.6-1.2h1.4z"/>
      <path d="m119.9 17.2c2.1 0 3.1 1.3 3.1 2.8 0 1.6-1 2.8-3.3 2.8h-2.3v-5.6zm-1.1 4.6h.9c1.4 0 1.8-1 1.8-1.8 0-1-.5-1.8-1.8-1.8h-.9z"/>
      <path d="m128.4 22.8h-4.2v-5.6h4.1v1h-2.7v1.2h2.6v1h-2.6v1.4h2.8z"/>
      <path d="m135 22.3c-.8.4-1.4.6-2.2.6-2.2 0-3.3-1.4-3.3-2.9s1.2-2.9 3.4-2.9c.8 0 1.5.2 2 .5v1.3c-.6-.3-1.2-.6-1.9-.6-1.2 0-2 .7-2 1.7s.8 1.7 2 1.7c.7 0 1.2-.2 2-.6z"/>
      <path d="m137.8 22.8h-1.4v-5.6h1.4z"/>
      <path d="m145 22.8h-1.2l-3.1-3.6v3.6h-1.4v-5.6h1.3l3 3.4v-3.4h1.4z"/>
      <path d="m150.2 18.7c-.8-.4-1.3-.5-1.8-.5s-.8.2-.8.5c0 .8 2.9.6 2.9 2.6 0 1.1-.9 1.7-2.2 1.7-1 0-1.5-.3-2-.5v-1.2c.8.5 1.3.7 1.9.7.5 0 .8-.2.8-.5 0-.9-2.9-.6-2.9-2.6 0-1 .8-1.6 2.1-1.6.6 0 1.2.1 1.9.4v1z"/>
    </g>
    <g>
      <path d="m55.2 37.9c-.8.4-1.4.6-2.2.6-2.2 0-3.3-1.4-3.3-2.9s1.2-2.9 3.4-2.9c.8 0 1.5.2 2 .5v1.3c-.6-.3-1.2-.6-1.9-.6-1.2 0-2 .7-2 1.7s.8 1.7 2 1.7c.7 0 1.2-.2 2-.6z"/>
      <path d="m62.3 38.4h-1.5l-.5-1.1h-2.5l-.4 1.1h-1.5l2.3-5.6h1.6zm-3.3-4.3-.8 2.2h1.7z"/>
      <path d="m66.9 34.2c-.8-.4-1.3-.5-1.8-.5s-.8.2-.8.5c0 .9 2.9.6 2.9 2.6 0 1.1-.9 1.7-2.2 1.7-1 0-1.5-.3-2-.5v-1.2c.8.5 1.3.7 1.9.7.5 0 .8-.2.8-.5 0-.9-2.9-.6-2.9-2.6 0-1 .8-1.6 2.1-1.6.6 0 1.2.1 1.9.4v1z"/>
      <path d="m72.1 34.2c-.8-.4-1.3-.5-1.8-.5s-.8.2-.8.5c0 .9 2.9.6 2.9 2.6 0 1.1-.9 1.7-2.2 1.7-1 0-1.5-.3-2-.5v-1.2c.8.5 1.3.7 1.9.7.5 0 .8-.2.8-.5 0-.9-2.9-.6-2.9-2.6 0-1 .8-1.6 2.1-1.6.6 0 1.2.1 1.9.4v1z"/>
      <path d="m79.4 38.4h-1.5l-.5-1.1h-2.5l-.4 1.1h-1.5l2.3-5.6h1.6zm-3.3-4.3-.8 2.2h1.7z"/>
      <path d="m85.2 32.8c2.1 0 3.1 1.3 3.1 2.8 0 1.6-1 2.8-3.3 2.8h-2.3v-5.6zm-1.1 4.6h.9c1.4 0 1.8-1 1.8-1.8 0-1-.5-1.8-1.9-1.8h-.9v3.6z"/>
      <path d="m93.7 38.4h-4.2v-5.6h4.1v1h-2.6v1.2h2.6v1h-2.6v1.4h2.8v1z"/>
      <path d="m96.5 38.4h-1.4v-5.6h1.4z"/>
      <path d="m105.3 32.8h1.2v5.6h-1.4v-3.5l-1.5 1.8h-.2l-1.5-1.8v3.5h-1.4v-5.6h1.2l1.8 2.1z"/>
      <path d="m112.2 38.4h-4.2v-5.6h4.1v1h-2.7v1.2h2.6v1h-2.6v1.4h2.7v1z"/>
      <path d="m115.9 32.8c2.1 0 3.1 1.3 3.1 2.8 0 1.6-1 2.8-3.3 2.8h-2.3v-5.6zm-1.1 4.6h.9c1.4 0 1.8-1 1.8-1.8 0-1-.5-1.8-1.9-1.8h-.9v3.6z"/>
      <path d="m121.7 38.4h-1.4v-5.6h1.4z"/>
      <path d="m128.5 37.9c-.8.4-1.4.6-2.2.6-2.2 0-3.3-1.4-3.3-2.9s1.2-2.9 3.4-2.9c.8 0 1.5.2 2 .5v1.3c-.6-.3-1.2-.6-1.9-.6-1.2 0-2 .7-2 1.7s.8 1.7 2 1.7c.7 0 1.2-.2 2-.6z"/>
      <path d="m131.3 38.4h-1.4v-5.6h1.4z"/>
    </g>
  </g>
  <g stroke-width="2">
    <path d="m48.6 2v26.4h26.4v-26.4z" fill="#004799"/>
    <path d="m65.2 23-6-7.2v7.2h-3.8v-15.4h3.8v7l5.2-7h4.4l-5.4 7.2 6.8 8.4h-5z" fill="#fff"/>
    <path d="m0 2v26.4h26.4v-26.4z" fill="#004799"/>
    <path d="m15.8 4.2c.8 0 1.4.6 1.4 1.6 0 .8-.6 1.6-1.4 1.6s-1.6-.6-1.6-1.6c.2-1 .8-1.6 1.6-1.6z" fill="#fff"/>
    <path d="m10.4 4.2c.8 0 1.6.6 1.6 1.4s-.6 1.6-1.6 1.6c-.8 0-1.6-.6-1.6-1.6.2-.8.8-1.4 1.6-1.4z" fill="#fff"/>
    <path d="m17.8 23.8-1.2-3h-7l-1.2 3h-4.2l6.8-15.4h4.2l6.8 15.4z" fill="#fff"/>
    <path d="m0 50.6v26.4h26.4v-26.4z" fill="#004799"/>
    <path d="m20 70.8c-2.2 1.2-3.8 1.6-6 1.6-6 0-9-4.2-9-8.4 0-4.4 3.4-8.6 9.4-8.6 2.2 0 4.2.4 5.6 1.4v3.6c-1.8-1-3.4-1.8-5.4-1.8-3.4 0-5.6 2-5.6 5s2.4 5 5.6 5c2 0 3.4-.6 5.6-1.8v4z" fill="#fff"/>
    <path d="m48.6 50.6v26.4h26.4v-26.4z" fill="#004799"/>
    <path d="m70.2 71.6h-3.8v-9.6l-4.6 5.6-4.6-5.6v9.6h-3.8v-15.6h3.4l5 6.2 5-6.2h3.4z" fill="#fff"/>
  </g>
  <path d="m5.4 9h2.4l-1.2-2.9z" fill="#004799" transform="scale(2)"/>
</svg>
